<svg width="1921" height="156" viewBox="0 0 1921 156" fill="none" xmlns="http://www.w3.org/2000/svg">
<path fill-rule="evenodd" clip-rule="evenodd" d="M516.502 4.89302L571.39 31.4965L677.648 31.4965L638.863 5.13593L639.091 4.89302L516.502 4.89302ZM610.583 54.0911L570.711 34.7661L470.947 34.7661L521.525 54.0911H610.583ZM617.329 57.3608L654.693 75.4702L577.478 75.4702L530.082 57.3608L617.329 57.3608ZM691.774 93.4429L661.438 78.7398L586.035 78.7398L624.516 93.4429L691.774 93.4429ZM698.52 96.7125L721.842 108.016L662.658 108.016L633.074 96.7125L698.52 96.7125ZM751.905 122.587L728.587 111.286L671.215 111.286L700.794 122.587L751.905 122.587ZM758.651 125.857L781.971 137.16L738.933 137.16L709.351 125.857L758.651 125.857ZM812.037 151.732L788.717 140.429L747.49 140.429L777.071 151.732L812.037 151.732ZM818.782 155.001L820.248 155.712L820.723 155.001L1475 155.001L1475.04 155.263L1476.69 155.001L1853.08 155.001V154.23L2000.82 140.429L2008.23 140.429V139.737L2156.8 125.857H2163.03V125.275L2312.78 111.286H2320.19V110.594L2468.78 96.7123H2475.34V96.0998L2661.17 78.7397H2668.64V78.0417L2890.02 57.3608H2895.06V56.8907L3131.89 34.7661H3145.75V33.4717L3451.67 4.89302H3460.21V4.09491L3460.27 4.08968L3460.21 3.48927V1.62341H3460.04L3459.96 0.834244L3451.52 1.62341L3331.8 1.62341L3331.71 0.675339L3322.09 1.62341H3203.58L3203.47 0.544159L3193.11 1.62341L3075.24 1.62341L3075.18 1.07481L3070.2 1.62341H2947.57L2947.45 0.652054L2939.17 1.62341L2819.33 1.62341L2819.19 0.517258L2810.36 1.62341H2691.02L2690.92 0.911118L2685.61 1.62341L2562.74 1.62341L2562.63 0.859818L2557.35 1.62341H2421.15L2421.06 1.06693L2417.57 1.62341L2309.49 1.62341L2309.27 0.291321L2301.48 1.62341L2179.78 1.62341L2179.53 0.317947L2172.62 1.62341H2050.13L2049.96 0.859116L2046.36 1.62341L1922.1 1.62341L1922.07 1.4767L1921.45 1.62341H1794.16L1794.05 1.22237L1792.59 1.62341L1666.04 1.62341L1665.58 0.555908L1662.2 1.62341H1536.25L1535.58 0.350601L1532.25 1.62341L1408.02 1.62341L1407.25 0.492081L1404.96 1.62341H1279.44L1278.72 0.868088L1277.62 1.62341L1150.35 1.62341L1150.13 1.49123L1150.02 1.62341L258.676 1.62341L256.566 0.953369L256.354 1.62341H130.449L128.556 1.10973L128.417 1.62341L3.36719 1.62341L0.690674 0.988968L0.540283 1.62341H-124.362L-127.414 0.981705L-127.549 1.62341L-252.981 1.62341L-255.506 1.14709L-255.596 1.62341L-379.759 1.62341L-383.952 0.904495L-384.076 1.62341H-509.574L-512.319 1.19359L-512.387 1.62341L-636.865 1.62341L-640.573 1.08775L-640.65 1.62341H-766.063L-768.991 1.23138L-769.043 1.62341L-896.265 1.62341L-897.378 1.4846L-897.395 1.62341H-1025.83L-1025.98 1.60625L-1025.98 1.62341L-1151.37 1.62341L-1154.27 1.30463L-1154.31 1.62341L-1406.86 1.62341L-1411.1 1.19293L-1411.14 1.62341L-1535.07 1.62341L-1539.45 1.20303L-1539.49 1.62341H-1539.72V4.06668L-1539.76 4.45764L-1539.72 4.46126V4.89302H-1535.23L-1233.97 33.8535V34.7661H-1224.47L-990.523 57.2559V57.3608H-989.432L-580.125 96.7126H-580.073L26.1838 154.992V155.002H26.2805L27.3184 155.101L27.3279 155.002L73.3281 155.002L74.2075 155.091L74.2166 155.002L167.073 155.002L167.969 155.094L167.979 155.002L214.235 155.002L214.846 155.069L214.854 155.002L260.649 155.002L261.7 155.124L261.714 155.002L307.474 155.002L308.579 155.139L308.596 155.002L354.839 155.002L355.459 155.085L355.47 155.002L401.836 155.002L402.32 155.071L402.33 155.002L448.957 155.002L449.193 155.038L449.198 155.002L495.558 155.001L496.042 155.084L496.056 155.001L542.404 155.001L542.9 155.095L542.917 155.001L589.332 155.001L589.746 155.088L589.764 155.001L636.263 155.001L636.604 155.082L636.623 155.001L683.188 155.001L683.427 155.066L683.445 155.001L776.534 155.001L777.828 155.496L778.088 155.001L818.782 155.001ZM671.139 151.732L629.487 140.429L588.961 140.429L636.645 151.732L671.139 151.732ZM622.469 151.732L574.786 140.429L535.908 140.429L589.672 151.732L622.469 151.732ZM573.779 151.732L520.015 140.429L482.796 140.429L542.709 151.732L573.779 151.732ZM525.072 151.732L465.159 140.429L429.907 140.429L495.836 151.732L525.072 151.732ZM476.487 151.732L410.557 140.429L377.019 140.429L449.212 151.732L476.487 151.732ZM428.073 151.732L355.88 140.429L323.843 140.429L402.071 151.732L428.073 151.732ZM379.206 151.732L300.978 140.429L270.64 140.429L355.057 151.732L379.206 151.732ZM330.419 151.732L246.002 140.429L217.025 140.429L307.677 151.732L330.419 151.732ZM281.251 151.732L190.598 140.429L163.957 140.429L260.839 151.732L281.251 151.732ZM232.623 151.732L135.741 140.429L111.575 140.429L214.414 151.732L232.623 151.732ZM184.486 151.732L81.647 140.429L58.0305 140.429L167.242 151.732L184.486 151.732ZM135.481 151.732L26.2698 140.429L-37.9712 140.429L73.4939 151.732L135.481 151.732ZM41.084 151.732L-70.3811 140.429L-91.1387 140.429L26.4375 151.732L41.084 151.732ZM683.624 151.732L641.972 140.429L684.898 140.429L720.484 151.732L683.624 151.732ZM731.285 151.732L767.977 151.732L738.396 140.429L695.699 140.429L731.285 151.732ZM1851.21 151.732L1851.15 151.127L1965.66 140.429L1946.98 140.429L1832.29 151.732L1851.21 151.732ZM1802.84 151.732L1802.81 151.352L1913.64 140.429L1892.31 140.429L1783.82 151.732L1802.84 151.732ZM1755.93 151.732L1755.89 151.354L1860.76 140.429L1838.24 140.429L1735.49 151.732L1755.93 151.732ZM1709.05 151.732L1709.01 151.356L1808.34 140.429L1783.38 140.429L1686.98 151.732L1709.05 151.732ZM1662.13 151.732L1662.09 151.358L1755.3 140.429L1728.74 140.429L1638.53 151.732L1662.13 151.732ZM1615.23 151.732L1615.18 151.362L1702.44 140.429L1674.49 140.429L1590.15 151.732L1615.23 151.732ZM1568.32 151.732L1568.27 151.365L1649.87 140.429L1619.9 140.429L1541.71 151.732L1568.32 151.732ZM1521.41 151.732L1521.36 151.37L1597.05 140.429L1568.05 140.429L1497.19 151.732L1521.41 151.732ZM1476.43 151.732L1547.29 140.429L1509.8 140.429L1443.76 151.732L1476.43 151.732ZM1427.59 151.732L1427.5 151.198L1490.42 140.429L1454.87 140.429L1394.99 151.732L1427.59 151.732ZM1380.67 151.732L1380.56 151.128L1437.24 140.429L1407.48 140.429L1354.18 151.732L1380.67 151.732ZM1338.41 151.732L1391.72 140.429L1352.62 140.429L1305.15 151.732L1338.41 151.732ZM1291.03 151.732L1338.5 140.429L1297.32 140.429L1255.98 151.732L1291.03 151.732ZM1244 151.732L1243.97 151.627L1284.92 140.429L1233.5 140.429L1197.71 151.732L1244 151.732ZM1188.94 151.732L1188.69 151.17L1222.7 140.429L1178.7 140.429L1149.17 151.732L1188.94 151.732ZM1142.49 151.732L1142.09 150.968L1169.62 140.429L1130.67 140.429L1107.74 151.732L1142.49 151.732ZM1101.97 151.732L1101.58 151.156L1123.35 140.429L1082.58 140.429L1066.23 151.732L1101.97 151.732ZM1061.24 151.732L1060.97 151.445L1076.9 140.429L1034.57 140.429L1024.82 151.732L1061.24 151.732ZM1020.56 151.732L1030.3 140.429L986.578 140.429L983.425 151.732L1020.56 151.732ZM980.04 151.732L983.193 140.429L938.559 140.429L942.003 151.732L980.04 151.732ZM938.595 151.732L935.151 140.429L891.543 140.429L901.585 151.732L938.595 151.732ZM897.264 151.732L887.221 140.429L843.671 140.429L860.301 151.732L897.264 151.732ZM854.556 151.732L819.461 151.732L796.142 140.429L837.926 140.429L854.556 151.732ZM700.257 125.857L729.838 137.16L685.405 137.16L649.819 125.857L700.257 125.857ZM674.604 137.16L629.923 137.16L588.271 125.857L639.018 125.857L674.604 137.16ZM575.786 125.857L617.438 137.16L575.168 137.16L527.484 125.857L575.786 125.857ZM513.308 125.857L560.992 137.16L520.355 137.16L466.591 125.857L513.308 125.857ZM450.698 125.857L504.462 137.16L465.465 137.16L405.552 125.857L450.698 125.857ZM387.915 125.857L447.828 137.16L410.835 137.16L344.906 125.857L387.915 125.857ZM325.556 125.857L391.485 137.16L356.135 137.16L283.942 125.857L325.556 125.857ZM262.803 125.857L334.996 137.16L301.213 137.16L222.985 125.857L262.803 125.857ZM200.12 125.857L278.348 137.16L246.22 137.16L161.804 125.857L200.12 125.857ZM137.167 125.857L221.583 137.16L190.801 137.16L100.148 125.857L137.167 125.857ZM73.7217 125.857L164.374 137.16L135.931 137.16L39.0493 125.857L73.7217 125.857ZM10.8335 125.857L107.715 137.16L81.8262 137.16L-21.0125 125.857L10.8335 125.857ZM-50.9407 125.857L51.8979 137.16L26.4382 137.16L-82.7727 125.857L-50.9407 125.857ZM-114.533 125.857L-5.32251 137.16L-70.2156 137.16L-181.681 125.857L-114.533 125.857ZM-214.091 125.857L-102.625 137.16L-125.107 137.16V137.164L-242.727 125.857L-214.091 125.857ZM2121.65 125.857L2000.66 137.16L1980.15 137.16L2094.84 125.857L2121.65 125.857ZM2061.5 125.857L1946.82 137.16L1923.69 137.16L2032.18 125.857L2061.5 125.857ZM2000.63 125.857L1892.14 137.16L1867.96 137.16L1970.71 125.857L2000.63 125.857ZM1940.81 125.857L1838.06 137.16L1811.27 137.16L1907.67 125.857L1940.81 125.857ZM1879.59 125.857L1783.19 137.16L1754.84 137.16L1845.06 125.857L1879.59 125.857ZM1818.76 125.857L1728.54 137.16L1698.88 137.16L1783.22 125.857L1818.76 125.857ZM1758.61 125.857L1674.27 137.16L1642.52 137.16L1720.72 125.857L1758.61 125.857ZM1697.86 125.857L1619.67 137.16L1588.55 137.16L1659.42 125.857L1697.86 125.857ZM1638.66 125.857L1567.79 137.16L1528.91 137.16L1594.95 125.857L1638.66 125.857ZM1575.57 125.857L1509.53 137.16L1472.19 137.16L1532.07 125.857L1575.57 125.857ZM1514.44 125.857L1454.56 137.16L1422.9 137.16L1476.21 125.857L1514.44 125.857ZM1460.45 125.857L1407.14 137.16L1366.35 137.16L1413.82 125.857L1460.45 125.857ZM1399.7 125.857L1352.23 137.16L1309.27 137.16L1350.61 125.857L1399.7 125.857ZM1338.22 125.857L1296.88 137.16L1243.85 137.16L1279.64 125.857L1338.22 125.857ZM1268.84 125.857L1233.05 137.16L1187.24 137.16L1216.77 125.857L1268.84 125.857ZM1207.69 125.857L1178.16 137.16L1137.3 137.16L1160.23 125.857L1207.69 125.857ZM1152.91 125.857L1129.98 137.16L1087.31 137.16L1103.65 125.857L1152.91 125.857ZM1097.97 125.857L1081.63 137.16L1037.39 137.16L1047.14 125.857L1097.97 125.857ZM1042.87 125.857L1033.12 137.16L987.49 137.16L990.643 125.857L1042.87 125.857ZM987.258 125.857L984.105 137.16L937.562 137.16L934.119 125.857L987.258 125.857ZM930.711 125.857L934.155 137.16L888.637 137.16L878.595 125.857L930.711 125.857ZM874.273 125.857L884.316 137.16L838.86 137.16L822.23 125.857L874.273 125.857ZM816.485 125.857L833.115 137.16L789.396 137.16L766.076 125.857L816.485 125.857ZM691.7 122.587L639.525 122.587L603.942 111.286L662.121 111.286L691.7 122.587ZM628.724 122.587L593.141 111.286L534.573 111.286L576.221 122.587L628.724 122.587ZM563.737 122.587L522.088 111.286L466.011 111.286L513.69 122.587L563.737 122.587ZM499.514 122.587L451.835 111.286L397.278 111.286L451.038 122.587L499.514 122.587ZM435.145 122.587L381.386 111.286L328.313 111.286L388.221 122.587L435.145 122.587ZM370.584 122.587L310.676 111.286L259.911 111.286L325.834 122.587L370.584 122.587ZM306.484 122.587L240.561 111.286L190.871 111.286L263.058 122.587L306.484 122.587ZM241.919 122.587L169.732 111.286L122.134 111.286L200.355 122.587L241.919 122.587ZM177.49 122.587L99.269 111.286L52.9753 111.286L137.384 122.587H177.49ZM112.747 122.587L28.3376 111.286L-16.72 111.286L73.9248 122.587L112.747 122.587ZM47.498 122.587L-43.1467 111.286L-85.8499 111.286L11.0237 122.587H47.498ZM-17.1921 122.587L-114.066 111.286L-153.591 111.286L-50.7615 122.587L-17.1921 122.587ZM-80.6897 122.587L-183.52 111.286L-223.566 111.286L-114.365 122.587L-80.6897 122.587ZM-146.126 122.587L-255.327 111.286L-325.38 111.286L-213.925 122.587L-146.126 122.587ZM-246.335 122.587L-357.79 111.286L-394.305 111.286L-276.711 122.587L-246.335 122.587ZM2156.65 122.587L2277.63 111.286L2242.69 111.286L2128.02 122.587L2156.65 122.587ZM2094.68 122.587L2209.36 111.286H2172.05L2063.57 122.587H2094.68ZM2032.01 122.587L2140.5 111.286L2103.18 111.286L2000.44 122.587L2032.01 122.587ZM1970.54 122.587L2073.28 111.286L2031.94 111.286L1935.55 122.587L1970.54 122.587ZM1907.48 122.587L2003.87 111.286L1961.36 111.286L1871.15 122.587L1907.48 122.587ZM1844.85 122.587L1935.06 111.286L1891.95 111.286L1807.62 122.587L1844.85 122.587ZM1783 122.587L1867.33 111.286L1821.53 111.286L1743.34 122.587L1783 122.587ZM1720.48 122.587L1798.67 111.286L1750.77 111.286L1679.92 122.587L1720.48 122.587ZM1659.16 122.587L1730.02 111.286L1680.09 111.286L1614.06 122.587L1659.16 122.587ZM1594.67 122.587L1660.71 111.286L1609.27 111.286L1549.39 122.587L1594.67 122.587ZM1531.77 122.587L1591.64 111.286L1544.93 111.286L1491.63 122.587L1531.77 122.587ZM1475.87 122.587L1529.17 111.286L1475.01 111.286L1427.55 122.587L1475.87 122.587ZM1413.43 122.587L1460.9 111.286L1403.91 111.286L1362.57 122.587L1413.43 122.587ZM1350.17 122.587L1391.51 111.286L1325.77 111.286L1289.99 122.587L1350.17 122.587ZM1279.19 122.587L1314.98 111.286L1254.84 111.286L1225.31 122.587L1279.19 122.587ZM1216.23 122.587L1245.76 111.286L1189.8 111.286L1166.87 122.587L1216.23 122.587ZM1159.54 122.587L1182.47 111.286L1124.72 111.286L1108.38 122.587L1159.54 122.587ZM1102.7 122.587L1119.04 111.286L1059.71 111.286L1049.96 122.587L1102.7 122.587ZM1045.69 122.587L1055.44 111.286L994.708 111.286L991.555 122.587L1045.69 122.587ZM988.17 122.587L991.323 111.286L929.679 111.286L933.123 122.587L988.17 122.587ZM929.715 122.587L926.271 111.286L865.647 111.286L875.689 122.587L929.715 122.587ZM871.368 122.587L861.326 111.286L800.791 111.286L817.419 122.587L871.368 122.587ZM811.674 122.587L795.046 111.286L736.012 111.286L759.33 122.587L811.674 122.587ZM623.979 96.7125L653.563 108.016L593.648 108.016L558.059 96.7125L623.979 96.7125ZM547.258 96.7125L582.847 108.016L522.524 108.016L480.868 96.7125L547.258 96.7125ZM468.383 96.7125L510.039 108.016L452.217 108.016L404.529 96.7125L468.383 96.7125ZM390.354 96.7125L438.041 108.016L381.726 108.016L327.957 96.7125L390.354 96.7125ZM312.064 96.7125L365.833 108.016L310.982 108.016L251.064 96.7125L312.064 96.7125ZM233.427 96.7125L293.345 108.016L240.839 108.016L174.904 96.7125L233.427 96.7125ZM155.554 96.7125L221.489 108.016L169.987 108.016L97.7876 96.7125L155.554 96.7125ZM21.2693 96.7125L76.6492 96.7125L148.849 108.016L99.5042 108.016L21.2693 96.7125ZM-1.5957 96.7125L76.6392 108.016L28.5554 108.016L-55.8682 96.7125L-1.5957 96.7125ZM-80.5059 96.7125L3.91772 108.016L-42.9438 108.016L-133.604 96.7125L-80.5059 96.7125ZM-160.031 96.7125L-69.3706 108.016L-113.876 108.016L-210.766 96.7126L-160.031 96.7125ZM-238.982 96.7126L-142.092 108.016L-183.34 108.016L-286.188 96.7126L-238.982 96.7126ZM-316.116 96.7126L-213.269 108.016L-255.159 108.016L-364.379 96.7126L-316.116 96.7126ZM-396.14 96.7126L-286.92 108.016L-357.625 108.016L-469.099 96.7126L-396.14 96.7126ZM-501.509 96.7126L-390.035 108.016L-428.258 108.016V108.022L-545.904 96.7126L-501.509 96.7126ZM2433.63 96.7123L2312.63 108.016L2275.87 108.016L2390.57 96.7123L2433.63 96.7123ZM2357.23 96.7123L2242.53 108.016L2203.43 108.016L2311.93 96.7123L2357.23 96.7123ZM2280.38 96.7123L2171.88 108.016L2132.9 108.016L2235.66 96.7123L2280.38 96.7123ZM2205.76 96.7123L2103 108.016L2059.83 108.016L2156.24 96.7123L2205.76 96.7123ZM2128.16 96.7123L2031.75 108.016L1987.46 108.016L2077.68 96.7124L2128.16 96.7123ZM2051.38 96.7124L1961.16 108.016L1916.35 108.016L2000.69 96.7124L2051.38 96.7124ZM1976.08 96.7124L1891.73 108.016L1844.15 108.016L1922.35 96.7124L1976.08 96.7124ZM1899.49 96.7124L1821.29 108.016L1771.27 108.016L1842.15 96.7124L1899.49 96.7124ZM1821.39 96.7124L1750.52 108.016L1699.2 108.016L1765.25 96.7124L1821.39 96.7124ZM1745.86 96.7124L1679.82 108.016L1626.59 108.016L1686.48 96.7124L1745.86 96.7124ZM1668.85 96.7124L1608.96 108.016L1560.35 108.016L1613.66 96.7124L1668.85 96.7124ZM1597.9 96.7124L1544.59 108.016L1488.74 108.016L1536.22 96.7124L1597.9 96.7124ZM1522.1 96.7124L1474.63 108.016L1415.86 108.016L1457.21 96.7124L1522.1 96.7124ZM1444.81 96.7124L1403.47 108.016L1336.13 108.016L1371.92 96.7124L1444.81 96.7124ZM1361.12 96.7124L1325.33 108.016L1263.38 108.016L1292.91 96.7124L1361.12 96.7124ZM1283.83 96.7124L1254.3 108.016L1196.43 108.016L1219.36 96.7124L1283.83 96.7124ZM1212.04 96.7124L1189.11 108.016L1129.45 108.016L1145.8 96.7124L1212.04 96.7124ZM1140.12 96.7124L1123.77 108.016L1062.53 108.016L1072.28 96.7124L1140.12 96.7124ZM1068.01 96.7124L1058.26 108.016L995.62 108.016L998.773 96.7124L1068.01 96.7124ZM995.388 96.7124L992.235 108.016L928.683 108.016L925.239 96.7125L995.388 96.7124ZM921.831 96.7125L925.275 108.016L862.742 108.016L852.699 96.7125L921.831 96.7125ZM848.377 96.7125L858.421 108.016L795.98 108.016L779.349 96.7125L848.377 96.7125ZM773.603 96.7125L790.235 108.016L729.267 108.016L705.945 96.7125L773.603 96.7125ZM615.422 93.4429L576.941 78.7398L501.473 78.7399L547.765 93.4429L615.422 93.4429ZM468.819 93.4429L536.964 93.4429L490.672 78.7399L414.636 78.7399L468.819 93.4429ZM456.334 93.4429L402.151 78.7399L328.706 78.7399L390.735 93.4429L456.334 93.4429ZM376.56 93.4429L314.531 78.7399L242.465 78.7399L312.404 93.4429L376.56 93.4429ZM296.511 93.4429L226.572 78.7399L155.795 78.7399L233.733 93.4429L296.511 93.4429ZM216.096 93.4429L138.158 78.7399H70.0679L155.832 93.4429L216.096 93.4429ZM136.482 93.4429L50.718 78.7399L-17.0088 78.7399L76.9036 93.4429L136.482 93.4429ZM55.7651 93.4429L-38.1472 78.7399L-103.124 78.7399L-1.36035 93.4429L55.7651 93.4429ZM-24.2253 93.4429L-125.989 78.7399H-190.101L-80.2881 93.4429L-24.2253 93.4429ZM-104.926 93.4429L-214.739 78.7399H-277.753L-159.828 93.4429L-104.926 93.4429ZM-186.255 93.4429L-304.18 78.7399L-364.82 78.7399L-238.792 93.4429L-186.255 93.4429ZM-267.008 93.443L-393.036 78.7399L-449.715 78.7399L-315.937 93.443L-267.008 93.443ZM-345.865 93.443L-479.643 78.7399H-538.038L-395.971 93.443L-345.865 93.443ZM-427.732 93.443L-569.799 78.7399L-646.343 78.74L-501.344 93.443L-427.732 93.443ZM-533.754 93.443L-678.753 78.74L-732.865 78.74L-579.916 93.443L-533.754 93.443ZM2468.63 93.4427L2626.02 78.7397L2572.94 78.7397L2423.74 93.4427L2468.63 93.4427ZM2390.41 93.4427L2539.6 78.7397L2484.45 78.7397L2343.32 93.4427L2390.41 93.4427ZM2311.76 93.4427L2452.89 78.7397L2399.05 78.7397L2265.39 93.4427L2311.76 93.4427ZM2235.48 93.4427L2369.15 78.7397L2309.53 78.7397L2184.12 93.4427L2235.48 93.4427ZM2156.05 93.4427L2281.45 78.7397L2221.14 78.7397L2103.78 93.4427L2156.05 93.4427ZM2077.48 93.4427L2194.83 78.7397L2134.8 78.7397L2025.09 93.4427L2077.48 93.4427ZM2000.47 93.4428L2110.18 78.7397L2046.69 78.7397L1944.97 93.4428L2000.47 93.4428ZM1922.11 93.4428L2023.83 78.7397L1954.83 78.7397L1862.65 93.4428L1922.11 93.4428ZM1841.89 93.4428L1934.07 78.7397L1870.26 78.7397L1784.35 93.4428L1841.89 93.4428ZM1764.97 93.4428L1850.88 78.7397L1781.69 78.7397L1703.8 93.4428L1764.97 93.4428ZM1686.17 93.4428L1764.07 78.7397L1698.42 78.7397L1629.08 93.4428L1686.17 93.4428ZM1613.32 93.4428L1682.66 78.7397L1611.7 78.7398L1549.95 93.4428L1613.32 93.4428ZM1535.83 93.4428L1597.58 78.7398L1522.94 78.7398L1469.16 93.4428L1535.83 93.4428ZM1456.77 93.4428L1510.54 78.7398L1428.82 78.7398L1382.27 93.4428L1456.77 93.4428ZM1371.47 93.4428L1418.03 78.7398L1339.86 78.7398L1301.45 93.4428L1371.47 93.4428ZM1292.37 93.4428L1330.79 78.7398L1255.83 78.7398L1226 93.4428L1292.37 93.4428ZM1218.67 93.4428L1248.5 78.7398L1171.79 78.7398L1150.52 93.4428L1218.67 93.4428ZM1144.85 93.4428L1166.11 78.7398L1087.78 78.7398L1075.1 93.4428L1144.85 93.4428ZM1070.83 93.4428L1083.51 78.7398L1003.79 78.7398L999.686 93.4428L1070.83 93.4428ZM996.3 93.4428L1000.4 78.7398L919.762 78.7398L924.242 93.4428L996.3 93.4428ZM920.835 93.4428L916.355 78.7398L836.729 78.7398L849.794 93.4429L920.835 93.4428ZM845.472 93.4429L832.408 78.7398L752.905 78.7398L774.538 93.4429L845.472 93.4429ZM768.793 93.4429L747.159 78.7398L668.864 78.7398L699.199 93.4429L768.793 93.4429ZM491.179 75.4702L568.384 75.4702L520.988 57.3608L434.162 57.3608L491.179 75.4702ZM423.361 57.3608L480.378 75.4702L402.587 75.4703L335.85 57.3608L423.361 57.3608ZM323.365 57.3608L390.102 75.4703L314.912 75.4703L238.512 57.3608L323.365 57.3608ZM224.336 57.3608L300.737 75.4703L226.912 75.4703L140.769 57.3608L224.336 57.3608ZM124.876 57.3608L211.019 75.4703L138.464 75.4703L42.4692 57.3608H124.876ZM24.8323 57.3608L120.827 75.4703H50.9961L-54.6384 57.3608H24.8323ZM-73.9883 57.3608L31.6462 75.4703L-37.8928 75.4703L-153.563 57.3608L-73.9883 57.3608ZM-174.702 57.3608L-59.031 75.4703L-125.753 75.4703L-251.094 57.3608L-174.702 57.3608ZM-273.959 57.3608L-148.618 75.4703L-214.521 75.4703L-349.776 57.3608L-273.959 57.3608ZM-374.414 57.3608L-239.158 75.4703L-303.977 75.4703L-449.225 57.3608L-374.414 57.3608ZM-475.651 57.3608L-330.404 75.4703L-392.846 75.4703L-548.074 57.3608L-475.651 57.3608ZM-576.29 57.3608L-421.062 75.4703L-479.464 75.4703L-644.236 57.3608H-576.29ZM-674.165 57.3608L-509.392 75.4703L-569.631 75.4703L-744.613 57.3608H-674.165ZM-776.374 57.3608L-601.391 75.4703L-678.587 75.4704L-857.181 57.3608H-776.374ZM-889.591 57.3608L-710.997 75.4704L-766.877 75.4704H-766.918L-955.263 57.3608L-889.591 57.3608ZM2854.87 57.3608L2661.02 75.4701L2606.11 75.4701L2789.87 57.3608L2854.87 57.3608ZM2756.53 57.3608L2572.77 75.4701L2515.83 75.4701L2689.66 57.3608L2756.53 57.3608ZM2658.1 57.3608L2484.28 75.4701L2428.77 75.4701L2593.4 57.3608H2658.1ZM2563.5 57.3608L2398.87 75.4701L2337.41 75.4701L2491.86 57.3608H2563.5ZM2463.79 57.3608L2309.33 75.4701L2247.23 75.4701L2391.78 57.3608H2463.79ZM2365.48 57.3608L2220.93 75.4701L2159.2 75.4701L2294.32 57.3608L2365.48 57.3608ZM2269.71 57.3608L2134.58 75.4701L2069.31 75.4701L2194.6 57.3608L2269.71 57.3608ZM2171.74 57.3608L2046.45 75.4701L1975.33 75.4701L2088.87 57.3608L2171.74 57.3608ZM2068.11 57.3608L1954.57 75.4701L1889.37 75.4701L1995.18 57.3608L2068.11 57.3608ZM1975.8 57.3608L1869.99 75.4701L1799.02 75.4701L1894.96 57.3608H1975.8ZM1877.33 57.3608L1781.39 75.4701L1713.84 75.4701L1799.25 57.3608H1877.33ZM1783.49 57.3608L1698.08 75.4701L1625.43 75.4701L1701.48 57.3608L1783.49 57.3608ZM1687.37 57.3608L1611.31 75.4701L1534.9 75.4702L1601.13 57.3608L1687.37 57.3608ZM1588.73 57.3608L1522.5 75.4702L1439.18 75.4702L1496.51 57.3608L1588.73 57.3608ZM1485.72 57.3608L1428.38 75.4702L1348.41 75.4702L1395.72 57.3608L1485.72 57.3608ZM1386.64 57.3608L1339.33 75.4702L1262.46 75.4702L1299.2 57.3608L1386.64 57.3608ZM1291.88 57.3608L1255.14 75.4702L1176.51 75.4702L1202.7 57.3608H1291.88ZM1197.02 57.3608L1170.84 75.4702L1090.6 75.4702L1106.22 57.3608H1197.02ZM1101.95 57.3608L1086.33 75.4702L1004.7 75.4702L1009.75 57.3608L1101.95 57.3608ZM1006.37 57.3608L1001.31 75.4702L918.766 75.4702L913.248 57.3608L1006.37 57.3608ZM909.841 57.3608L915.359 75.4702L833.824 75.4702L817.733 57.3608L909.841 57.3608ZM813.412 57.3608L829.503 75.4702L748.094 75.4702L721.449 57.3608L813.412 57.3608ZM715.703 57.3608L742.349 75.4702L662.118 75.4702L624.754 57.3608H715.703ZM512.431 54.0911L461.853 34.7661L363.024 34.7661L423.868 54.0911L512.431 54.0911ZM413.067 54.0911L352.223 34.7661L252.585 34.7661L323.801 54.0911L413.067 54.0911ZM311.316 54.0911L240.1 34.7661L143.189 34.7661L224.718 54.0911L311.316 54.0911ZM210.542 54.0911L129.014 34.7661L33.2908 34.7661L125.216 54.0911L210.542 54.0911ZM109.323 54.0911L17.3982 34.7661H-77.3L25.1377 54.0911L109.323 54.0911ZM7.50073 54.0911L-94.937 34.7661H-186.435L-73.7102 54.0911H7.50073ZM-93.0603 54.0911L-205.785 34.7661H-297.882L-174.448 54.0911H-93.0603ZM-195.586 54.0911L-319.021 34.7661H-407.477L-273.724 54.0911H-195.586ZM-296.589 54.0911L-430.342 34.7661H-518.53L-374.196 54.0911L-296.589 54.0911ZM-398.833 54.0911L-543.167 34.7661H-630.445L-475.448 54.0911L-398.833 54.0911ZM-501.875 54.0911L-656.872 34.7661L-741.748 34.7661L-576.1 54.0911L-501.875 54.0911ZM-604.316 54.0911L-769.963 34.7661L-849.817 34.7661L-673.985 54.0911L-604.316 54.0911ZM-703.914 54.0911L-879.746 34.7661L-962.933 34.7661L-776.206 54.0911L-703.914 54.0911ZM-807.966 54.0911L-994.693 34.7661L-1080.01 34.7661L-889.426 54.0911H-807.966ZM-921.836 54.0911L-1112.42 34.7661L-1190.31 34.7661L-989.275 54.0911H-921.836ZM2889.87 54.0911L3096.74 34.7661L3019.13 34.7661L2823.04 54.0911H2889.87ZM2789.7 54.0911L2985.79 34.7661L2906.54 34.7661L2721.04 54.0911H2789.7ZM2689.49 54.0911L2874.98 34.7661L2798.81 34.7661L2623.12 54.0911H2689.49ZM2593.22 54.0911L2768.9 34.7661L2684.57 34.7661L2519.75 54.0911L2593.22 54.0911ZM2491.67 54.0911L2656.5 34.7661L2572.12 34.7661L2417.87 54.0911L2491.67 54.0911ZM2391.57 54.0911L2545.82 34.7661L2462.92 34.7661L2318.72 54.0911L2391.57 54.0911ZM2294.11 54.0911L2438.3 34.7661L2350.91 34.7661L2217.22 54.0911L2294.11 54.0911ZM2194.36 54.0911L2328.06 34.7661L2230.53 34.7661L2109.37 54.0911L2194.36 54.0911ZM2088.61 54.0911L2209.78 34.7661H2127.21L2014.29 54.0911H2088.61ZM1994.91 54.0911L2107.83 34.7661H2014.66L1912.28 54.0911H1994.91ZM1894.65 54.0911L1997.03 34.7661H1905.81L1814.67 54.0911L1894.65 54.0911ZM1798.91 54.0911L1890.05 34.7661H1796.38L1715.22 54.0911L1798.91 54.0911ZM1701.1 54.0911L1782.26 34.7661L1683.77 34.7661L1613.09 54.0911L1701.1 54.0911ZM1600.69 54.0911L1671.37 34.7661L1568.06 34.7661L1506.87 54.0911L1600.69 54.0911ZM1496.07 54.0911L1557.26 34.7661L1454.75 34.7661L1404.26 54.0911L1496.07 54.0911ZM1395.18 54.0911L1445.67 34.7661L1345.04 34.7661L1305.83 54.0911L1395.18 54.0911ZM1298.51 54.0911L1337.72 34.7661L1235.37 34.7661L1207.43 54.0911H1298.51ZM1201.75 54.0911L1229.7 34.7661L1125.7 34.7661L1109.04 54.0911L1201.75 54.0911ZM1104.77 54.0911L1121.44 34.7661L1016.05 34.7661L1010.66 54.0911L1104.77 54.0911ZM1007.28 54.0911L1012.67 34.7661L906.364 34.7661L912.252 54.0911L1007.28 54.0911ZM908.844 54.0911L902.956 34.7661L797.657 34.7661L814.828 54.0911L908.844 54.0911ZM810.507 54.0911L793.335 34.7661L688.204 34.7661L716.638 54.0911L810.507 54.0911ZM710.893 54.0911L682.459 34.7661L578.136 34.7661L618.008 54.0911H710.893ZM462.39 31.4965L563.965 31.4965L510.76 5.70914L511.307 4.89302H392.763L462.39 31.4965ZM383.906 4.9837L453.295 31.4965L352.73 31.4965L268.97 4.89302L383.954 4.89302L383.906 4.9837ZM258.169 4.89302L341.929 31.4965L240.536 31.4965L142.498 4.89302H258.169ZM130.013 4.89302L228.051 31.4965L129.396 31.4965L17.1611 4.89302L130.013 4.89302ZM2.98535 4.89302L115.22 31.4965L17.738 31.4965L-108.809 4.89302H2.98535ZM-124.701 4.89302L1.84546 31.4965L-94.6313 31.4965L-235.65 4.89302L-124.701 4.89302ZM-253.287 4.89302L-112.268 31.4965L-205.507 31.4965L-360.687 4.89302H-253.287ZM-380.037 4.89302L-224.857 31.4965L-318.766 31.4965L-488.69 4.89302H-380.037ZM-509.828 4.89302L-339.905 31.4965L-430.107 31.4965L-614.236 4.89302L-509.828 4.89302ZM-637.101 4.89302L-452.972 31.4965H-542.95L-741.644 4.89302H-637.101ZM-766.281 4.89302L-567.587 31.4965H-656.668L-870.041 4.89302L-766.281 4.89302ZM-896.468 4.89302L-683.095 31.4965H-769.773L-997.808 4.89302H-896.468ZM-1026.02 4.89302L-797.989 31.4965H-879.566L-1121.62 4.89302L-1026.02 4.89302ZM-1151.55 4.89302L-909.495 31.4965H-994.525L-1251.58 4.89302H-1151.55ZM-1283.08 4.92001L-1026.29 31.4965H-1112.25L-1374.61 4.89302L-1283.08 4.89302L-1283.08 4.92001ZM-1407.02 4.89302L-1144.66 31.4965H-1224.32L-1501.06 4.89302H-1407.02ZM3416.52 4.89302L3131.74 31.4965L3052.31 31.4965L3322.25 4.89302L3416.52 4.89302ZM3288.91 4.89302L3018.97 31.4965L2937.92 31.4965L3193.28 4.89302H3288.91ZM3161.73 4.89302L2906.37 31.4965H2828.53L3070.38 4.89302L3161.73 4.89302ZM3040.47 4.89302L2798.63 31.4965H2712.46L2939.36 4.89302H3040.47ZM2911.28 4.89302L2684.38 31.4965H2598.22L2810.56 4.89302L2911.28 4.89302ZM2784.26 4.89302L2571.92 31.4965H2487.32L2685.83 4.89302H2784.26ZM2661.21 4.89302L2462.7 31.4965H2373.53L2557.58 4.89302L2661.21 4.89302ZM2534.73 4.89302L2350.68 31.4965H2251.03L2417.83 4.89302H2534.73ZM2397.07 4.89302L2230.28 31.4965H2146.31L2301.76 4.89302H2397.07ZM2282.38 4.89302L2126.93 31.4965L2031.98 31.4965L2172.92 4.89302L2282.38 4.89302ZM2155.3 4.89302L2014.35 31.4965L1921.23 31.4965L2046.7 4.89302H2155.3ZM2030.94 4.89302L1905.47 31.4965L1810.11 31.4965L1921.84 4.89302L2030.94 4.89302ZM1907.72 4.89302L1795.99 31.4965L1695.73 31.4965L1793.03 4.89302H1907.72ZM1780.63 4.89302L1683.33 31.4965L1578.41 31.4965L1662.64 4.89302L1780.63 4.89302ZM1651.85 4.89302L1567.61 31.4965L1463.29 31.4965L1532.79 4.89302H1651.85ZM1523.71 4.89302L1454.21 31.4965L1351.67 31.4965L1405.65 4.89302L1523.71 4.89302ZM1398.32 4.89302L1344.35 31.4965L1240.1 31.4965L1278.57 4.89302H1398.32ZM1272.89 4.89302L1234.42 31.4965L1128.52 31.4965L1151.47 4.89302L1272.89 4.89302ZM1147.2 4.89302L1124.26 31.4965L1016.97 31.4965L1024.39 4.89302H1147.2ZM1021 4.89302L1013.58 31.4965L905.367 31.4965L897.261 4.89302H1021ZM893.854 4.89302L901.96 31.4965L794.752 31.4965L771.114 4.89302L893.854 4.89302ZM766.792 4.89302L790.43 31.4965L683.393 31.4965L644.25 4.89302H766.792Z" fill="url(#paint0_linear_18_547)"/>
<defs>
<linearGradient id="paint0_linear_18_547" x1="960.254" y1="155.712" x2="960.254" y2="0.291336" gradientUnits="userSpaceOnUse">
<stop stop-color="#DADADA" stop-opacity="0"/>
<stop offset="1" stop-color="#D6D6D6"/>
</linearGradient>
</defs>
</svg>
