<svg width="5001" height="156" viewBox="0 0 5001 156" fill="none" xmlns="http://www.w3.org/2000/svg">
<path fill-rule="evenodd" clip-rule="evenodd" d="M2943.77 150.819L2888.88 124.215H2782.62L2821.4 150.576L2821.18 150.819H2943.77ZM2849.68 101.621L2889.56 120.946H2989.32L2938.74 101.621H2849.68ZM2842.94 98.3509L2805.57 80.2414L2882.79 80.2414L2930.19 98.3509H2842.94ZM2768.49 62.2688L2798.83 76.9718L2874.23 76.9718L2835.75 62.2688L2768.49 62.2688ZM2761.75 58.9992L2738.43 47.6956L2797.61 47.6956L2827.19 58.9992L2761.75 58.9992ZM2708.36 33.1243L2731.68 44.426L2789.05 44.426L2759.47 33.1243L2708.36 33.1243ZM2701.62 29.8547L2678.3 18.5521L2721.33 18.5521L2750.92 29.8547L2701.62 29.8547ZM2648.23 3.97981L2671.55 15.2825L2712.78 15.2824L2683.2 3.9798L2648.23 3.97981ZM2641.48 0.710201L2640.02 0L2639.54 0.710201L1985.26 0.710258L1985.22 0.44847L1983.58 0.710258L1607.19 0.710291V1.48136L1459.45 15.2826L1452.04 15.2826V15.975L1303.46 29.8548H1297.24V30.4364L1147.48 44.4261H1140.08V45.1178L991.483 58.9994H984.927V59.6118L799.094 76.972H791.622V77.67L570.243 98.3509H565.211V98.821L328.377 120.946H314.522V122.24L8.59944 150.819H0.0560881V151.617L0 151.622L0.0560881 152.222V154.088H0.230394L0.304117 154.877L8.75182 154.088H128.463L128.557 155.036L138.177 154.088H256.685L256.798 155.168L267.157 154.088H385.022L385.083 154.637L390.07 154.088H512.701L512.815 155.06L521.1 154.088H640.94L641.079 155.194L649.908 154.088H769.25L769.345 154.801L774.66 154.088H897.525L897.636 154.852L902.918 154.088H1039.12L1039.21 154.645L1042.69 154.088H1150.77L1151 155.42L1158.78 154.088H1280.49L1280.73 155.394L1287.65 154.088H1410.14L1410.3 154.853L1413.91 154.088H1538.16L1538.2 154.235L1538.82 154.088H1666.1L1666.21 154.489L1667.68 154.088H1794.22L1794.69 155.156L1798.07 154.088H1924.02L1924.69 155.361L1928.01 154.088H2052.24L2053.01 155.22L2055.31 154.088H2180.83L2181.55 154.844L2182.64 154.088H2309.92L2310.13 154.22L2310.25 154.088H3201.59L3203.7 154.758L3203.91 154.088H3329.82L3331.71 154.602L3331.85 154.088H3456.9L3459.58 154.723L3459.73 154.088H3584.63L3587.68 154.73L3587.82 154.088H3713.25L3715.77 154.565L3715.86 154.088H3840.03L3844.22 154.807L3844.34 154.088H3969.84L3972.59 154.518L3972.65 154.088H4097.13L4100.84 154.624L4100.92 154.088H4226.33L4229.26 154.48L4229.31 154.088H4356.53L4357.65 154.227L4357.66 154.088H4486.1L4486.25 154.105L4486.25 154.088H4611.64L4614.54 154.407L4614.57 154.088H4867.12L4871.37 154.519L4871.41 154.088H4995.34L4999.71 154.509L4999.75 154.088H4999.99V151.645L5000.03 151.254L4999.99 151.25V150.819H4995.5L4694.23 121.858V120.946H4684.74L4450.79 98.4558V98.3509H4449.7L4040.39 58.9991H4040.34L3434.08 0.719433V0.710132H3433.99L3432.95 0.610371L3432.94 0.710132L3386.94 0.710136L3386.06 0.620976L3386.05 0.710136L3293.19 0.710144L3292.3 0.617414L3292.29 0.710144L3246.03 0.710148L3245.42 0.642928L3245.41 0.710148L3199.62 0.710152L3198.57 0.587515L3198.55 0.710152L3152.79 0.710156L3151.69 0.572461L3151.67 0.710156L3105.43 0.71016L3104.81 0.627094L3104.8 0.71016L3058.43 0.710164L3057.95 0.640178L3057.94 0.710165L3011.31 0.710169L3011.07 0.673325L3011.07 0.710169L2964.71 0.710173L2964.23 0.627353L2964.21 0.710173L2917.86 0.710177L2917.37 0.616558L2917.35 0.710177L2870.94 0.710181L2870.52 0.623191L2870.5 0.710181L2824 0.710185L2823.66 0.629368L2823.64 0.710185L2777.08 0.710189L2776.84 0.645278L2776.82 0.710189L2683.73 0.710197L2682.44 0.216023L2682.18 0.710197L2641.48 0.710201ZM2789.13 3.97979L2830.78 15.2824L2871.31 15.2824L2823.62 3.97979L2789.13 3.97979ZM2837.8 3.97979L2885.48 15.2824L2924.36 15.2824L2870.59 3.97979L2837.8 3.97979ZM2886.49 3.97978L2940.25 15.2824L2977.47 15.2824L2917.56 3.97978L2886.49 3.97978ZM2935.19 3.97978L2995.11 15.2824L3030.36 15.2824L2964.43 3.97978L2935.19 3.97978ZM2983.78 3.97978L3049.71 15.2824L3083.25 15.2824L3011.06 3.97977L2983.78 3.97978ZM3032.19 3.97977L3104.39 15.2824L3136.42 15.2824L3058.2 3.97977L3032.19 3.97977ZM3081.06 3.97977L3159.29 15.2824L3189.63 15.2824L3105.21 3.97977L3081.06 3.97977ZM3129.85 3.97976L3214.26 15.2824L3243.24 15.2824L3152.59 3.97976L3129.85 3.97976ZM3179.02 3.97976L3269.67 15.2824L3296.31 15.2824L3199.43 3.97976L3179.02 3.97976ZM3227.64 3.97975L3324.53 15.2824L3348.69 15.2824L3245.85 3.97975L3227.64 3.97975ZM3275.78 3.97975L3378.62 15.2824L3402.24 15.2824L3293.03 3.97975L3275.78 3.97975ZM3324.79 3.97975L3434 15.2824L3498.24 15.2824L3386.77 3.97974L3324.79 3.97975ZM3419.18 3.97974L3530.65 15.2824L3551.41 15.2824L3433.83 3.97974L3419.18 3.97974ZM2776.64 3.97979L2818.3 15.2824L2775.37 15.2824L2739.78 3.9798L2776.64 3.97979ZM2728.98 3.9798L2692.29 3.9798L2721.87 15.2824L2764.57 15.2824L2728.98 3.9798ZM1609.06 3.9799L1609.12 4.5849L1494.6 15.2826L1513.29 15.2826L1627.98 3.97989L1609.06 3.9799ZM1657.42 3.97989L1657.46 4.35968L1546.63 15.2825L1567.96 15.2825L1676.45 3.97989L1657.42 3.97989ZM1704.33 3.97989L1704.37 4.35784L1599.51 15.2825L1622.03 15.2825L1724.78 3.97989L1704.33 3.97989ZM1751.22 3.97988L1751.26 4.35584L1651.93 15.2825L1676.89 15.2825L1773.29 3.97988L1751.22 3.97988ZM1798.13 3.97988L1798.18 4.3532L1704.96 15.2825L1731.52 15.2825L1821.74 3.97988L1798.13 3.97988ZM1845.04 3.97988L1845.08 4.35008L1757.82 15.2825L1785.78 15.2825L1870.12 3.97987L1845.04 3.97988ZM1891.95 3.97987L1892 4.34647L1810.39 15.2825L1840.36 15.2825L1918.56 3.97987L1891.95 3.97987ZM1938.86 3.97987L1938.91 4.34181L1863.22 15.2825L1892.22 15.2825L1963.08 3.97987L1938.86 3.97987ZM1983.84 3.97986L1912.97 15.2825L1950.46 15.2825L2016.51 3.97986L1983.84 3.97986ZM2032.68 3.97986L2032.77 4.51413L1969.85 15.2825L2005.4 15.2825L2065.28 3.97986L2032.68 3.97986ZM2079.59 3.97986L2079.71 4.58336L2023.03 15.2825L2052.78 15.2825L2106.09 3.97985L2079.59 3.97986ZM2121.85 3.97985L2068.55 15.2825L2107.65 15.2825L2155.12 3.97985L2121.85 3.97985ZM2169.24 3.97985L2121.77 15.2825L2162.95 15.2825L2204.29 3.97984L2169.24 3.97985ZM2216.27 3.97984L2216.3 4.0851L2175.35 15.2825L2226.77 15.2825L2262.56 3.97984L2216.27 3.97984ZM2271.33 3.97984L2271.58 4.54129L2237.57 15.2825L2281.57 15.2825L2311.09 3.97984L2271.33 3.97984ZM2317.78 3.97983L2318.18 4.74354L2290.65 15.2825L2329.6 15.2825L2352.53 3.97983L2317.78 3.97983ZM2358.29 3.97983L2358.68 4.55582L2336.92 15.2825L2377.69 15.2825L2394.03 3.97983L2358.29 3.97983ZM2399.02 3.97983L2399.3 4.26634L2383.37 15.2825L2425.7 15.2825L2435.44 3.97982L2399.02 3.97983ZM2439.71 3.97982L2429.96 15.2825L2473.69 15.2825L2476.84 3.97982L2439.71 3.97982ZM2480.23 3.97982L2477.07 15.2825L2521.71 15.2825L2518.26 3.97982L2480.23 3.97982ZM2521.67 3.97982L2525.12 15.2825L2568.72 15.2825L2558.68 3.97981L2521.67 3.97982ZM2563 3.97981L2573.05 15.2825L2616.6 15.2825L2599.97 3.97981L2563 3.97981ZM2605.71 3.97981L2640.81 3.97981L2664.13 15.2825L2622.34 15.2825L2605.71 3.97981ZM2760.01 29.8547L2730.43 18.5521L2774.86 18.552L2810.45 29.8547L2760.01 29.8547ZM2785.66 18.552L2830.34 18.552L2872 29.8547L2821.25 29.8547L2785.66 18.552ZM2884.48 29.8547L2842.83 18.552L2885.1 18.552L2932.78 29.8547L2884.48 29.8547ZM2946.96 29.8547L2899.28 18.552L2939.91 18.552L2993.68 29.8547L2946.96 29.8547ZM3009.57 29.8547L2955.8 18.552L2994.8 18.552L3054.71 29.8547L3009.57 29.8547ZM3072.35 29.8547L3012.44 18.552L3049.43 18.552L3115.36 29.8547L3072.35 29.8547ZM3134.71 29.8547L3068.78 18.552L3104.13 18.552L3176.33 29.8547L3134.71 29.8547ZM3197.46 29.8547L3125.27 18.552L3159.05 18.552L3237.28 29.8547L3197.46 29.8547ZM3260.15 29.8547L3181.92 18.552L3214.05 18.552L3298.46 29.8546L3260.15 29.8547ZM3323.1 29.8546L3238.68 18.552L3269.47 18.552L3360.12 29.8546L3323.1 29.8546ZM3386.55 29.8546L3295.89 18.552L3324.34 18.552L3421.22 29.8546L3386.55 29.8546ZM3449.43 29.8546L3352.55 18.552L3378.44 18.552L3481.28 29.8546L3449.43 29.8546ZM3511.21 29.8546L3408.37 18.552L3433.83 18.552L3543.04 29.8546L3511.21 29.8546ZM3574.8 29.8546L3465.59 18.552L3530.48 18.552L3641.95 29.8546L3574.8 29.8546ZM3674.36 29.8546L3562.89 18.552L3585.37 18.552V18.5477L3702.99 29.8546L3674.36 29.8546ZM1338.61 29.8548L1459.6 18.5522L1480.11 18.5522L1365.43 29.8548L1338.61 29.8548ZM1398.76 29.8548L1513.45 18.5522L1536.57 18.5522L1428.08 29.8548L1398.76 29.8548ZM1459.64 29.8548L1568.13 18.5522L1592.3 18.5522L1489.55 29.8548L1459.64 29.8548ZM1519.45 29.8548L1622.21 18.5521L1649 18.5521L1552.6 29.8548L1519.45 29.8548ZM1580.68 29.8548L1677.08 18.5521L1705.43 18.5521L1615.21 29.8548L1580.68 29.8548ZM1641.51 29.8548L1731.73 18.5521L1761.38 18.5521L1677.04 29.8548L1641.51 29.8548ZM1701.66 29.8548L1786 18.5521L1817.74 18.5521L1739.55 29.8548L1701.66 29.8548ZM1762.4 29.8548L1840.6 18.5521L1871.72 18.5521L1800.85 29.8548L1762.4 29.8548ZM1821.61 29.8548L1892.48 18.5521L1931.36 18.5521L1865.32 29.8548L1821.61 29.8548ZM1884.7 29.8548L1950.74 18.5521L1988.08 18.5521L1928.2 29.8548L1884.7 29.8548ZM1945.82 29.8548L2005.7 18.5521L2037.36 18.5521L1984.06 29.8548L1945.82 29.8548ZM1999.82 29.8548L2053.13 18.5521L2093.92 18.5521L2046.45 29.8548L1999.82 29.8548ZM2060.57 29.8548L2108.04 18.5521L2150.99 18.5521L2109.65 29.8548L2060.57 29.8548ZM2122.05 29.8548L2163.39 18.5521L2216.42 18.5521L2180.63 29.8547L2122.05 29.8548ZM2191.43 29.8547L2227.21 18.5521L2273.02 18.5521L2243.5 29.8547L2191.43 29.8547ZM2252.58 29.8547L2282.1 18.5521L2322.96 18.5521L2300.03 29.8547L2252.58 29.8547ZM2307.36 29.8547L2330.29 18.5521L2372.96 18.5521L2356.62 29.8547L2307.36 29.8547ZM2362.29 29.8547L2378.64 18.5521L2422.88 18.5521L2413.13 29.8547L2362.29 29.8547ZM2417.39 29.8547L2427.14 18.5521L2472.78 18.5521L2469.62 29.8547L2417.39 29.8547ZM2473.01 29.8547L2476.16 18.5521L2522.7 18.5521L2526.15 29.8547L2473.01 29.8547ZM2529.56 29.8547L2526.11 18.5521L2571.63 18.5521L2581.67 29.8547L2529.56 29.8547ZM2585.99 29.8547L2575.95 18.5521L2621.41 18.5521L2638.04 29.8547L2585.99 29.8547ZM2643.78 29.8547L2627.15 18.5521L2670.87 18.5521L2694.19 29.8547L2643.78 29.8547ZM2768.57 33.1243L2820.74 33.1243L2856.32 44.426L2798.15 44.426L2768.57 33.1243ZM2831.54 33.1243L2867.13 44.426L2925.69 44.426L2884.05 33.1243L2831.54 33.1243ZM2896.53 33.1243L2938.18 44.426L2994.26 44.4259L2946.58 33.1243L2896.53 33.1243ZM2960.75 33.1243L3008.43 44.4259L3062.99 44.4259L3009.23 33.1243L2960.75 33.1243ZM3025.12 33.1243L3078.88 44.4259L3131.95 44.4259L3072.05 33.1243L3025.12 33.1243ZM3089.68 33.1243L3149.59 44.4259L3200.36 44.4259L3134.43 33.1243L3089.68 33.1243ZM3153.78 33.1243L3219.71 44.4259L3269.4 44.4259L3197.21 33.1243L3153.78 33.1243ZM3218.35 33.1243L3290.53 44.4259L3338.13 44.4259L3259.91 33.1243L3218.35 33.1243ZM3282.78 33.1243L3361 44.4259L3407.29 44.4259L3322.88 33.1243H3282.78ZM3347.52 33.1242L3431.93 44.4259L3476.99 44.4259L3386.34 33.1242L3347.52 33.1242ZM3412.77 33.1242L3503.41 44.4259L3546.12 44.4259L3449.24 33.1242H3412.77ZM3477.46 33.1242L3574.33 44.4259L3613.86 44.4259L3511.03 33.1242L3477.46 33.1242ZM3540.96 33.1242L3643.79 44.4259L3683.83 44.4259L3574.63 33.1242H3540.96ZM3606.39 33.1242L3715.59 44.4259L3785.65 44.4259L3674.19 33.1242L3606.39 33.1242ZM3706.6 33.1242L3818.06 44.4259L3854.57 44.4259L3736.98 33.1242L3706.6 33.1242ZM1303.61 33.1244L1182.64 44.4261L1217.57 44.4261L1332.25 33.1244L1303.61 33.1244ZM1365.59 33.1244L1250.91 44.4261H1288.22L1396.7 33.1244H1365.59ZM1428.25 33.1244L1319.77 44.4261L1357.09 44.4261L1459.83 33.1244L1428.25 33.1244ZM1489.73 33.1244L1386.99 44.4261L1428.32 44.4261L1524.71 33.1244L1489.73 33.1244ZM1552.79 33.1244L1456.4 44.4261L1498.91 44.4261L1589.11 33.1244L1552.79 33.1244ZM1615.41 33.1244L1525.21 44.4261L1568.32 44.4261L1652.65 33.1244L1615.41 33.1244ZM1677.26 33.1244L1592.93 44.4261L1638.74 44.4261L1716.93 33.1244L1677.26 33.1244ZM1739.78 33.1244L1661.6 44.4261L1709.49 44.4261L1780.35 33.1244L1739.78 33.1244ZM1801.11 33.1244L1730.25 44.4261L1780.17 44.4261L1846.21 33.1244L1801.11 33.1244ZM1865.59 33.1244L1799.56 44.4261L1851 44.426L1910.87 33.1244L1865.59 33.1244ZM1928.5 33.1244L1868.63 44.426L1915.34 44.426L1968.64 33.1244L1928.5 33.1244ZM1984.4 33.1244L1931.1 44.426L1985.26 44.426L2032.72 33.1244L1984.4 33.1244ZM2046.84 33.1244L1999.37 44.426L2056.36 44.426L2097.7 33.1244L2046.84 33.1244ZM2110.09 33.1244L2068.76 44.426L2134.49 44.426L2170.28 33.1244L2110.09 33.1244ZM2181.07 33.1244L2145.29 44.426L2205.43 44.426L2234.95 33.1243L2181.07 33.1244ZM2244.03 33.1243L2214.51 44.426L2270.47 44.426L2293.4 33.1243L2244.03 33.1243ZM2300.72 33.1243L2277.79 44.426L2335.54 44.426L2351.89 33.1243L2300.72 33.1243ZM2357.57 33.1243L2341.22 44.426L2400.56 44.426L2410.31 33.1243L2357.57 33.1243ZM2414.57 33.1243L2404.83 44.426L2465.56 44.426L2468.71 33.1243L2414.57 33.1243ZM2472.1 33.1243L2468.94 44.426L2530.59 44.426L2527.14 33.1243L2472.1 33.1243ZM2530.55 33.1243L2534 44.426L2594.62 44.426L2584.58 33.1243L2530.55 33.1243ZM2588.9 33.1243L2598.94 44.426L2659.48 44.426L2642.85 33.1243L2588.9 33.1243ZM2648.59 33.1243L2665.22 44.426L2724.25 44.426L2700.94 33.1243L2648.59 33.1243ZM2836.29 58.9992L2806.7 47.6956L2866.62 47.6956L2902.21 58.9992L2836.29 58.9992ZM2913.01 58.9992L2877.42 47.6956L2937.74 47.6956L2979.4 58.9992L2913.01 58.9992ZM2991.88 58.9992L2950.23 47.6956L3008.05 47.6956L3055.74 58.9992L2991.88 58.9992ZM3069.91 58.9992L3022.23 47.6956L3078.54 47.6955L3132.31 58.9992L3069.91 58.9992ZM3148.2 58.9992L3094.43 47.6955L3149.29 47.6955L3209.2 58.9992L3148.2 58.9992ZM3226.84 58.9992L3166.92 47.6955L3219.43 47.6955L3285.36 58.9991L3226.84 58.9992ZM3304.71 58.9991L3238.78 47.6955L3290.28 47.6955L3362.48 58.9991L3304.71 58.9991ZM3439 58.9991L3383.62 58.9991L3311.42 47.6955L3360.76 47.6955L3439 58.9991ZM3461.86 58.9991L3383.63 47.6955L3431.71 47.6955L3516.14 58.9991L3461.86 58.9991ZM3540.77 58.9991L3456.35 47.6955L3503.21 47.6955L3593.87 58.9991L3540.77 58.9991ZM3620.3 58.9991L3529.64 47.6955L3574.14 47.6955L3671.03 58.9991L3620.3 58.9991ZM3699.25 58.9991L3602.36 47.6955L3643.61 47.6955L3746.46 58.9991L3699.25 58.9991ZM3776.38 58.9991L3673.54 47.6955L3715.43 47.6955L3824.65 58.9991L3776.38 58.9991ZM3856.41 58.9991L3747.19 47.6955L3817.89 47.6955L3929.37 58.9991L3856.41 58.9991ZM3961.78 58.9991L3850.3 47.6955L3888.52 47.6955V47.6897L4006.17 58.9991L3961.78 58.9991ZM1026.64 58.9993L1147.64 47.6957L1184.4 47.6957L1069.7 58.9993L1026.64 58.9993ZM1103.04 58.9993L1217.73 47.6957L1256.83 47.6957L1148.33 58.9993L1103.04 58.9993ZM1179.89 58.9993L1288.39 47.6957L1327.36 47.6957L1224.6 58.9993L1179.89 58.9993ZM1254.51 58.9993L1357.27 47.6957L1400.44 47.6957L1304.03 58.9993L1254.51 58.9993ZM1332.11 58.9993L1428.51 47.6957L1472.81 47.6957L1382.59 58.9993L1332.11 58.9993ZM1408.89 58.9993L1499.11 47.6957L1543.92 47.6957L1459.58 58.9993L1408.89 58.9993ZM1484.19 58.9993L1568.54 47.6957L1616.12 47.6957L1537.92 58.9993L1484.19 58.9993ZM1560.77 58.9993L1638.98 47.6957L1688.99 47.6957L1618.12 58.9993L1560.77 58.9993ZM1638.88 58.9993L1709.75 47.6957L1761.07 47.6957L1695.02 58.9993L1638.88 58.9993ZM1714.4 58.9993L1780.45 47.6957L1833.68 47.6957L1773.79 58.9993L1714.4 58.9993ZM1791.42 58.9993L1851.3 47.6957L1899.92 47.6957L1846.61 58.9993L1791.42 58.9993ZM1862.37 58.9993L1915.68 47.6956L1971.52 47.6956L1924.05 58.9993L1862.37 58.9993ZM1938.17 58.9993L1985.64 47.6956L2044.4 47.6956L2003.06 58.9993L1938.17 58.9993ZM2015.46 58.9993L2056.8 47.6956L2124.14 47.6956L2088.35 58.9993L2015.46 58.9993ZM2099.15 58.9993L2134.94 47.6956L2196.89 47.6956L2167.36 58.9992L2099.15 58.9993ZM2176.44 58.9992L2205.97 47.6956L2263.84 47.6956L2240.9 58.9992L2176.44 58.9992ZM2248.23 58.9992L2271.16 47.6956L2330.82 47.6956L2314.47 58.9992L2248.23 58.9992ZM2320.15 58.9992L2336.49 47.6956L2397.74 47.6956L2387.99 58.9992L2320.15 58.9992ZM2392.26 58.9992L2402.01 47.6956L2464.65 47.6956L2461.49 58.9992L2392.26 58.9992ZM2464.88 58.9992L2468.03 47.6956L2531.58 47.6956L2535.03 58.9992L2464.88 58.9992ZM2538.44 58.9992L2534.99 47.6956L2597.52 47.6956L2607.57 58.9992L2538.44 58.9992ZM2611.89 58.9992L2601.85 47.6956L2664.29 47.6956L2680.92 58.9992L2611.89 58.9992ZM2686.66 58.9992L2670.03 47.6956L2731 47.6956L2754.32 58.9992L2686.66 58.9992ZM2844.84 62.2688L2883.33 76.9718L2958.79 76.9718L2912.5 62.2688L2844.84 62.2688ZM2991.45 62.2688L2923.3 62.2688L2969.59 76.9718L3045.63 76.9718L2991.45 62.2688ZM3003.93 62.2688L3058.12 76.9718L3131.56 76.9718L3069.53 62.2688L3003.93 62.2688ZM3083.71 62.2688L3145.74 76.9718L3217.8 76.9718L3147.86 62.2688L3083.71 62.2688ZM3163.76 62.2688L3233.7 76.9718L3304.47 76.9718L3226.53 62.2688L3163.76 62.2688ZM3244.17 62.2688L3322.11 76.9718H3390.2L3304.44 62.2688L3244.17 62.2688ZM3323.79 62.2688L3409.55 76.9718H3477.28L3383.36 62.2687L3323.79 62.2688ZM3404.5 62.2687L3498.41 76.9718H3563.39L3461.63 62.2687L3404.5 62.2687ZM3484.49 62.2687L3586.26 76.9718H3650.37L3540.56 62.2687L3484.49 62.2687ZM3565.19 62.2687L3675.01 76.9718H3738.02L3620.1 62.2687L3565.19 62.2687ZM3646.52 62.2687L3764.45 76.9717H3825.09L3699.06 62.2687L3646.52 62.2687ZM3727.27 62.2687L3853.3 76.9717H3909.98L3776.2 62.2687L3727.27 62.2687ZM3806.13 62.2687L3939.91 76.9717H3998.31L3856.24 62.2687L3806.13 62.2687ZM3888 62.2687L4030.07 76.9717L4106.61 76.9717L3961.61 62.2687L3888 62.2687ZM3994.02 62.2687L4139.02 76.9717L4193.13 76.9717L4040.18 62.2687L3994.02 62.2687ZM991.636 62.269L834.246 76.972L887.332 76.972L1036.52 62.269L991.636 62.269ZM1069.86 62.269L920.669 76.972L975.819 76.972L1116.95 62.2689L1069.86 62.269ZM1148.5 62.2689L1007.37 76.972L1061.22 76.972L1194.88 62.2689L1148.5 62.2689ZM1224.78 62.2689L1091.12 76.972L1150.74 76.972L1276.14 62.2689L1224.78 62.2689ZM1304.22 62.2689L1178.82 76.972L1239.13 76.972L1356.49 62.2689L1304.22 62.2689ZM1382.79 62.2689L1265.43 76.972L1325.47 76.972L1435.18 62.2689L1382.79 62.2689ZM1459.79 62.2689L1350.08 76.972L1413.58 76.972L1515.3 62.2689L1459.79 62.2689ZM1538.15 62.2689L1436.43 76.972L1505.44 76.9719L1597.62 62.2689L1538.15 62.2689ZM1618.38 62.2689L1526.2 76.9719L1590 76.9719L1675.92 62.2689L1618.38 62.2689ZM1695.3 62.2689L1609.39 76.9719L1678.57 76.9719L1756.47 62.2689L1695.3 62.2689ZM1774.1 62.2689L1696.2 76.9719L1761.84 76.9719L1831.19 62.2689L1774.1 62.2689ZM1846.95 62.2689L1777.61 76.9719L1848.57 76.9719L1910.32 62.2689L1846.95 62.2689ZM1924.44 62.2689L1862.69 76.9719L1937.33 76.9719L1991.1 62.2689L1924.44 62.2689ZM2003.5 62.2689L1949.73 76.9719L2031.44 76.9719L2078 62.2689L2003.5 62.2689ZM2088.79 62.2689L2042.24 76.9719L2120.4 76.9719L2158.81 62.2689L2088.79 62.2689ZM2167.89 62.2689L2129.48 76.9719L2204.44 76.9719L2234.27 62.2688L2167.89 62.2689ZM2241.59 62.2688L2211.76 76.9719L2288.48 76.9719L2309.74 62.2688L2241.59 62.2688ZM2315.42 62.2688L2294.16 76.9719L2372.49 76.9719L2385.17 62.2688L2315.42 62.2688ZM2389.44 62.2688L2376.76 76.9719L2456.48 76.9719L2460.58 62.2688L2389.44 62.2688ZM2463.97 62.2688L2459.87 76.9719L2540.5 76.9719L2536.02 62.2688L2463.97 62.2688ZM2539.43 62.2688L2543.91 76.9719L2623.54 76.9718L2610.47 62.2688L2539.43 62.2688ZM2614.8 62.2688L2627.86 76.9718L2707.36 76.9718L2685.73 62.2688L2614.8 62.2688ZM2691.47 62.2688L2713.11 76.9718L2791.4 76.9718L2761.07 62.2688L2691.47 62.2688ZM2969.09 80.2414L2891.88 80.2414L2939.28 98.3509H3026.1L2969.09 80.2414ZM3036.91 98.3509L2979.89 80.2414L3057.68 80.2414L3124.42 98.3509H3036.91ZM3136.9 98.3509L3070.17 80.2414H3145.35L3221.76 98.3509H3136.9ZM3235.93 98.3509L3159.53 80.2414H3233.36L3319.5 98.3509H3235.93ZM3335.39 98.3509L3249.25 80.2414H3321.8L3417.8 98.3509H3335.39ZM3435.43 98.3509L3339.44 80.2414H3409.27L3514.91 98.3509H3435.43ZM3534.26 98.3509L3428.62 80.2414L3498.16 80.2414L3613.83 98.3509H3534.26ZM3634.97 98.3509L3519.3 80.2414L3586.02 80.2414L3711.36 98.3509H3634.97ZM3734.23 98.3509L3608.89 80.2414L3674.79 80.2414L3810.04 98.3509H3734.23ZM3834.68 98.3509L3699.43 80.2414L3764.24 80.2413L3909.49 98.3509H3834.68ZM3935.92 98.3509L3790.67 80.2413L3853.11 80.2413L4008.34 98.3509H3935.92ZM4036.56 98.3509L3881.33 80.2413L3939.73 80.2413L4104.5 98.3509H4036.56ZM4134.43 98.3509L3969.66 80.2413L4029.9 80.2413L4204.88 98.3509H4134.43ZM4236.64 98.3509L4061.66 80.2413L4138.85 80.2413L4317.45 98.3509H4236.64ZM4349.86 98.3509L4171.26 80.2413L4227.14 80.2413H4227.19L4415.53 98.3509H4349.86ZM605.395 98.3509L799.247 80.2416L854.155 80.2416L670.402 98.3509H605.395ZM703.739 98.3509L887.492 80.2416L944.435 80.2416L770.609 98.3509H703.739ZM802.163 98.3509L975.989 80.2416L1031.49 80.2416L866.866 98.3509H802.163ZM896.768 98.3509L1061.4 80.2416L1122.86 80.2416L968.402 98.3509H896.768ZM996.479 98.3509L1150.93 80.2416L1213.03 80.2416L1068.49 98.3509H996.479ZM1094.79 98.3509L1239.34 80.2416L1301.07 80.2416L1165.94 98.3509H1094.79ZM1190.56 98.3509L1325.69 80.2416L1390.96 80.2416L1265.67 98.3509H1190.56ZM1288.53 98.3509L1413.81 80.2416L1484.94 80.2416L1371.4 98.3509H1288.53ZM1392.15 98.3509L1505.7 80.2416L1570.9 80.2415L1465.08 98.3509H1392.15ZM1484.47 98.3509L1590.28 80.2415L1661.25 80.2415L1565.31 98.3509H1484.47ZM1582.94 98.3509L1678.88 80.2415L1746.42 80.2415L1661.02 98.3509H1582.94ZM1676.78 98.3509L1762.19 80.2415L1834.84 80.2415L1758.78 98.3509H1676.78ZM1772.9 98.3509L1848.95 80.2415L1925.37 80.2415L1859.14 98.3509H1772.9ZM1871.53 98.3509L1937.77 80.2415L2021.09 80.2415L1963.75 98.3509H1871.53ZM1974.55 98.3509L2031.89 80.2415L2111.86 80.2415L2064.55 98.3509H1974.55ZM2073.63 98.3509L2120.94 80.2415L2197.81 80.2415L2161.07 98.3509H2073.63ZM2168.39 98.3509L2205.13 80.2415L2283.75 80.2415L2257.57 98.3509H2168.39ZM2263.24 98.3509L2289.43 80.2415L2369.67 80.2415L2354.05 98.3509H2263.24ZM2358.32 98.3509L2373.94 80.2415L2455.57 80.2415L2450.52 98.3509H2358.32ZM2453.9 98.3509L2458.95 80.2415L2541.5 80.2415L2547.02 98.3509H2453.9ZM2550.43 98.3509L2544.91 80.2415L2626.44 80.2415L2642.53 98.3509H2550.43ZM2646.86 98.3509L2630.76 80.2415L2712.17 80.2414L2738.82 98.3509H2646.86ZM2744.56 98.3509L2717.92 80.2414L2798.15 80.2414L2835.51 98.3509H2744.56ZM2947.84 101.621L2998.41 120.946H3097.24L3036.4 101.621H2947.84ZM3047.2 101.621L3108.04 120.946H3207.68L3136.47 101.621H3047.2ZM3148.95 101.621L3220.17 120.946H3317.08L3235.55 101.621H3148.95ZM3249.72 101.621L3331.25 120.946H3426.98L3335.05 101.621H3249.72ZM3350.94 101.621L3442.87 120.946H3537.57L3435.13 101.621H3350.94ZM3452.77 101.621L3555.2 120.946H3646.7L3533.98 101.621H3452.77ZM3553.33 101.621L3666.05 120.946H3758.15L3634.71 101.621H3553.33ZM3655.85 101.621L3779.29 120.946H3867.74L3733.99 101.621H3655.85ZM3756.86 101.621L3890.61 120.946H3978.8L3834.46 101.621H3756.86ZM3859.1 101.621L4003.43 120.946H4090.71L3935.72 101.621H3859.1ZM3962.14 101.621L4117.14 120.946H4202.01L4036.37 101.621H3962.14ZM4064.58 101.621L4230.23 120.946H4310.08L4134.25 101.621H4064.58ZM4164.18 101.621L4340.01 120.946H4423.2L4236.47 101.621H4164.18ZM4268.23 101.621L4454.96 120.946H4540.27L4349.69 101.621H4268.23ZM4382.1 101.621L4572.68 120.946H4650.57L4449.54 101.621H4382.1ZM570.395 101.621L363.529 120.946H441.135L637.225 101.621H570.395ZM670.562 101.621L474.472 120.946H553.73L739.225 101.621H670.562ZM770.779 101.621L585.284 120.946H661.461L837.142 101.621H770.779ZM867.045 101.621L691.364 120.946H775.694L940.516 101.621H867.045ZM968.593 101.621L803.771 120.946H888.144L1042.39 101.621H968.593ZM1068.69 101.621L914.445 120.946H997.347L1141.55 101.621H1068.69ZM1166.16 101.621L1021.96 120.946H1109.35L1243.05 101.621H1166.16ZM1265.91 101.621L1132.21 120.946H1229.73L1350.9 101.621H1265.91ZM1371.66 101.621L1250.49 120.946H1333.06L1445.98 101.621H1371.66ZM1465.36 101.621L1352.44 120.946H1445.61L1547.99 101.621H1465.36ZM1565.62 101.621L1463.23 120.946H1554.45L1645.59 101.621H1565.62ZM1661.36 101.621L1570.22 120.946H1663.89L1745.05 101.621H1661.36ZM1759.17 101.621L1678.01 120.946H1776.5L1847.18 101.621H1759.17ZM1859.58 101.621L1788.9 120.946H1892.21L1953.4 101.621H1859.58ZM1964.2 101.621L1903.01 120.946H2005.52L2056.01 101.621H1964.2ZM2065.09 101.621L2014.6 120.946H2115.23L2154.43 101.621H2065.09ZM2161.76 101.621L2122.55 120.946H2224.89L2252.84 101.621H2161.76ZM2258.52 101.621L2230.57 120.946H2334.56L2351.23 101.621H2258.52ZM2355.5 101.621L2338.83 120.946H2444.21L2449.6 101.621H2355.5ZM2452.99 101.621L2447.6 120.946H2553.9L2548.02 101.621H2452.99ZM2551.42 101.621L2557.31 120.946H2662.61L2645.44 101.621H2551.42ZM2649.76 101.621L2666.93 120.946H2772.06L2743.63 101.621H2649.76ZM2749.37 101.621L2777.81 120.946H2882.13L2842.26 101.621H2749.37ZM2997.88 124.215H2896.3L2949.51 150.003L2948.96 150.819H3067.5L2997.88 124.215ZM3076.36 150.728L3006.97 124.215H3107.54L3191.3 150.819H3076.31L3076.36 150.728ZM3202.1 150.819L3118.34 124.215H3219.73L3317.77 150.819H3202.1ZM3330.25 150.819L3232.22 124.215H3330.87L3443.11 150.819H3330.25ZM3457.28 150.819L3345.05 124.215H3442.53L3569.08 150.819H3457.28ZM3584.97 150.819L3458.42 124.215H3554.9L3695.92 150.819H3584.97ZM3713.55 150.819L3572.54 124.215H3665.77L3820.95 150.819H3713.55ZM3840.3 150.819L3685.12 124.215H3779.03L3948.96 150.819H3840.3ZM3970.1 150.819L3800.17 124.215H3890.37L4074.5 150.819H3970.1ZM4097.37 150.819L3913.24 124.215H4003.22L4201.91 150.819H4097.37ZM4226.55 150.819L4027.85 124.215H4116.94L4330.31 150.819H4226.55ZM4356.73 150.819L4143.36 124.215H4230.04L4458.08 150.819H4356.73ZM4486.29 150.819L4258.26 124.215H4339.83L4581.89 150.819H4486.29ZM4611.82 150.819L4369.76 124.215H4454.79L4711.85 150.819H4611.82ZM4743.35 150.792L4486.55 124.215H4572.52L4834.88 150.819H4743.34L4743.35 150.792ZM4867.29 150.819L4604.93 124.215H4684.58L4961.33 150.819H4867.29ZM43.7515 150.819L328.529 124.215H407.959L138.016 150.819H43.7515ZM171.353 150.819L441.296 124.215H522.346L266.987 150.819H171.353ZM298.541 150.819L553.9 124.215H631.738L389.891 150.819H298.541ZM419.793 150.819L661.641 124.215H747.807L520.909 150.819H419.793ZM548.986 150.819L775.885 124.215H862.047L649.704 150.819H548.986ZM676.005 150.819L888.348 124.215H972.95L774.442 150.819H676.005ZM799.057 150.819L997.565 124.215H1086.73L902.683 150.819H799.057ZM925.539 150.819L1109.59 124.215H1209.23L1042.44 150.819H925.539ZM1063.19 150.819L1229.99 124.215H1313.95L1158.51 150.819H1063.19ZM1177.89 150.819L1333.34 124.215H1428.28L1287.34 150.819H1177.89ZM1304.97 150.819L1445.91 124.215H1539.03L1413.57 150.819H1304.97ZM1429.33 150.819L1554.8 124.215H1650.16L1538.43 150.819H1429.33ZM1552.55 150.819L1664.27 124.215H1764.54L1667.24 150.819H1552.55ZM1679.64 150.819L1776.94 124.215H1881.86L1797.62 150.819H1679.64ZM1808.42 150.819L1892.66 124.215H1996.98L1927.48 150.819H1808.42ZM1936.56 150.819L2006.06 124.215H2108.59L2054.62 150.819H1936.56ZM2061.94 150.819L2115.92 124.215H2220.17L2181.69 150.819H2061.94ZM2187.37 150.819L2225.84 124.215H2331.74L2308.8 150.819H2187.37ZM2313.07 150.819L2336.01 124.215H2443.3L2435.88 150.819H2313.07ZM2439.27 150.819L2446.69 124.215H2554.9L2563.01 150.819H2439.27ZM2566.41 150.819L2558.31 124.215H2665.51L2689.15 150.819H2566.41ZM2693.47 150.819L2669.84 124.215H2776.87L2816.02 150.819H2693.47Z" fill="url(#paint0_linear_35_72)"/>
<defs>
<linearGradient id="paint0_linear_35_72" x1="2500.01" y1="0" x2="2500.01" y2="155.42" gradientUnits="userSpaceOnUse">
<stop stop-color="#DADADA" stop-opacity="0"/>
<stop offset="1" stop-color="#D6D6D6"/>
</linearGradient>
</defs>
</svg>
