<svg width="35" height="26" viewBox="0 0 35 26" fill="none" xmlns="http://www.w3.org/2000/svg">
<path fill-rule="evenodd" clip-rule="evenodd" d="M34.0916 13.3555C34.0916 12.9254 33.9208 12.5129 33.6166 12.2087C33.3125 11.9046 32.9 11.7337 32.4698 11.7337H2.19603C1.7659 11.7337 1.35338 11.9046 1.04924 12.2087C0.745087 12.5129 0.574219 12.9254 0.574219 13.3555C0.574219 13.7856 0.745087 14.1982 1.04924 14.5023C1.35338 14.8065 1.7659 14.9773 2.19603 14.9773H32.4698C32.9 14.9773 33.3125 14.8065 33.6166 14.5023C33.9208 14.1982 34.0916 13.7856 34.0916 13.3555ZM34.0916 2.54344C34.0916 2.11331 33.9208 1.7008 33.6166 1.39665C33.3125 1.0925 32.9 0.921631 32.4698 0.921631H2.19603C1.7659 0.921631 1.35338 1.0925 1.04924 1.39665C0.745087 1.7008 0.574219 2.11331 0.574219 2.54344C0.574219 2.97357 0.745087 3.38609 1.04924 3.69024C1.35338 3.99438 1.7659 4.16525 2.19603 4.16525H32.4698C32.9 4.16525 33.3125 3.99438 33.6166 3.69024C33.9208 3.38609 34.0916 2.97357 34.0916 2.54344ZM34.0916 24.1676C34.0916 23.7375 33.9208 23.3249 33.6166 23.0208C33.3125 22.7166 32.9 22.5458 32.4698 22.5458H2.19603C1.7659 22.5458 1.35338 22.7166 1.04924 23.0208C0.745087 23.3249 0.574219 23.7375 0.574219 24.1676C0.574219 24.5977 0.745087 25.0102 1.04924 25.3144C1.35338 25.6185 1.7659 25.7894 2.19603 25.7894H32.4698C32.9 25.7894 33.3125 25.6185 33.6166 25.3144C33.9208 25.0102 34.0916 24.5977 34.0916 24.1676Z" fill="#294F74"/>
</svg>
