<svg width="20" height="20" viewBox="0 0 20 20" fill="none" xmlns="http://www.w3.org/2000/svg">
<path d="M9.73632 5.1931C7.07616 5.1931 4.92929 7.33998 4.92929 10.0001C4.92929 12.6603 7.07616 14.8072 9.73632 14.8072C12.3965 14.8072 14.5433 12.6603 14.5433 10.0001C14.5433 7.33998 12.3965 5.1931 9.73632 5.1931ZM9.73632 13.1244C8.016 13.1244 6.6121 11.7204 6.6121 10.0001C6.6121 8.27982 8.016 6.87592 9.73632 6.87592C11.4566 6.87592 12.8605 8.27982 12.8605 10.0001C12.8605 11.7204 11.4566 13.1244 9.73632 13.1244ZM14.7402 3.87592C14.1191 3.87592 13.6176 4.37748 13.6176 4.99857C13.6176 5.61967 14.1191 6.12123 14.7402 6.12123C15.3613 6.12123 15.8629 5.62201 15.8629 4.99857C15.8631 4.85109 15.8342 4.70502 15.7778 4.56873C15.7214 4.43244 15.6388 4.30861 15.5345 4.20432C15.4302 4.10004 15.3064 4.01735 15.1701 3.961C15.0338 3.90464 14.8877 3.87573 14.7402 3.87592ZM19.1066 10.0001C19.1066 8.70639 19.1183 7.42435 19.0457 6.13295C18.973 4.63295 18.6308 3.3017 17.534 2.20482C16.4348 1.1056 15.1058 0.765761 13.6058 0.693104C12.3121 0.620448 11.0301 0.632167 9.73866 0.632167C8.44491 0.632167 7.16288 0.620448 5.87147 0.693104C4.37147 0.765761 3.04022 1.10795 1.94335 2.20482C0.84413 3.30404 0.504286 4.63295 0.43163 6.13295C0.358973 7.4267 0.370692 8.70873 0.370692 10.0001C0.370692 11.2915 0.358973 12.5759 0.43163 13.8673C0.504286 15.3673 0.846474 16.6986 1.94335 17.7954C3.04257 18.8947 4.37147 19.2345 5.87147 19.3072C7.16522 19.3798 8.44725 19.3681 9.73866 19.3681C11.0324 19.3681 12.3144 19.3798 13.6058 19.3072C15.1058 19.2345 16.4371 18.8923 17.534 17.7954C18.6332 16.6962 18.973 15.3673 19.0457 13.8673C19.1207 12.5759 19.1066 11.2939 19.1066 10.0001ZM17.0441 15.5267C16.873 15.9533 16.6668 16.272 16.3363 16.6001C16.0058 16.9306 15.6894 17.1369 15.2629 17.3079C14.0301 17.7978 11.1027 17.6876 9.73632 17.6876C8.36991 17.6876 5.44022 17.7978 4.20741 17.3103C3.78085 17.1392 3.4621 16.9329 3.13397 16.6025C2.8035 16.272 2.59725 15.9556 2.42616 15.529C1.93866 14.2939 2.04882 11.3665 2.04882 10.0001C2.04882 8.63373 1.93866 5.70404 2.42616 4.47123C2.59725 4.04467 2.8035 3.72592 3.13397 3.39779C3.46444 3.06967 3.78085 2.86107 4.20741 2.68998C5.44022 2.20248 8.36991 2.31264 9.73632 2.31264C11.1027 2.31264 14.0324 2.20248 15.2652 2.68998C15.6918 2.86107 16.0105 3.06732 16.3387 3.39779C16.6691 3.72826 16.8754 4.04467 17.0465 4.47123C17.534 5.70404 17.4238 8.63373 17.4238 10.0001C17.4238 11.3665 17.534 14.2939 17.0441 15.5267Z" fill="#294F74"/>
</svg>
