<svg width="22" height="22" viewBox="0 0 22 22" fill="none" xmlns="http://www.w3.org/2000/svg">
<rect x="0.920898" y="0.970215" width="19.64" height="19.64" rx="2.41325" stroke="#294F74"/>
<path fill-rule="evenodd" clip-rule="evenodd" d="M5.93131 7.5047C6.33759 7.5047 6.72723 7.3433 7.01452 7.05602C7.3018 6.76873 7.4632 6.37909 7.4632 5.97281C7.4632 5.56653 7.3018 5.17688 7.01452 4.8896C6.72723 4.60231 6.33759 4.44092 5.93131 4.44092C5.52502 4.44092 5.13538 4.60231 4.84809 4.8896C4.56081 5.17688 4.39941 5.56653 4.39941 5.97281C4.39941 6.37909 4.56081 6.76873 4.84809 7.05602C5.13538 7.3433 5.52502 7.5047 5.93131 7.5047ZM7.21322 17.1396V8.70586H4.64939V17.1396H7.21322ZM8.91561 8.70586H11.4794V9.83523C11.8576 9.24298 12.6883 8.44563 14.233 8.44563C16.0764 8.44563 17.0776 9.66729 17.0776 11.9914C17.0776 12.1029 17.0878 12.6119 17.0878 12.6119V17.1383H14.524V12.6131C14.524 11.9914 14.3932 10.7697 13.0113 10.7697C11.6281 10.7697 11.5115 12.3055 11.4794 13.3105V17.1383H8.91561V8.70586Z" fill="#294F74"/>
<path d="M7.21322 17.1396V8.70586H4.64939V17.1396H7.21322Z" fill="#294F74"/>
<path d="M8.91561 8.70586H11.4794V9.83523C11.8576 9.24298 12.6883 8.44563 14.233 8.44563C16.0764 8.44563 17.0776 9.66729 17.0776 11.9914C17.0776 12.1029 17.0878 12.6119 17.0878 12.6119V17.1383H14.524V12.6131C14.524 11.9914 14.3932 10.7697 13.0113 10.7697C11.6281 10.7697 11.5115 12.3055 11.4794 13.3105V17.1383H8.91561V8.70586Z" fill="#294F74"/>
<path d="M5.93131 7.5047C6.33759 7.5047 6.72723 7.3433 7.01452 7.05602C7.3018 6.76873 7.4632 6.37909 7.4632 5.97281C7.4632 5.56653 7.3018 5.17688 7.01452 4.8896C6.72723 4.60231 6.33759 4.44092 5.93131 4.44092C5.52502 4.44092 5.13538 4.60231 4.84809 4.8896C4.56081 5.17688 4.39941 5.56653 4.39941 5.97281C4.39941 6.37909 4.56081 6.76873 4.84809 7.05602C5.13538 7.3433 5.52502 7.5047 5.93131 7.5047Z" fill="#294F74"/>
</svg>
