<svg width="21" height="22" viewBox="0 0 21 22" fill="none" xmlns="http://www.w3.org/2000/svg">
<path d="M19.182 3.74128L19.7868 3.70136C19.779 3.5826 19.7363 3.4688 19.6641 3.37421C19.5918 3.27961 19.4933 3.20842 19.3808 3.16955C19.2684 3.13067 19.1469 3.12585 19.0317 3.15567C18.9165 3.18549 18.8126 3.24864 18.7331 3.33721L19.182 3.74128ZM18.5795 7.32108C18.5795 7.16065 18.5158 7.00679 18.4023 6.89335C18.2889 6.77991 18.1351 6.71618 17.9746 6.71618C17.8142 6.71618 17.6604 6.77991 17.5469 6.89335C17.4335 7.00679 17.3698 7.16065 17.3698 7.32108H18.5795ZM2.27224 17.0491V16.4442C2.14236 16.444 2.01588 16.4857 1.91151 16.563C1.80713 16.6403 1.73041 16.7491 1.6927 16.8734C1.65498 16.9977 1.65826 17.1308 1.70207 17.2531C1.74587 17.3754 1.82787 17.4803 1.93593 17.5523L2.27224 17.0491ZM3.47956 3.74128L4.04692 3.52957C4.00569 3.41912 3.93309 3.32313 3.83804 3.2534C3.74299 3.18367 3.62963 3.14323 3.51191 3.13706C3.39418 3.13089 3.27722 3.15926 3.17541 3.21867C3.07359 3.27809 2.99135 3.36596 2.9388 3.4715L3.47956 3.74128ZM8.31125 14.6295L8.7395 15.0565C8.81216 14.9836 8.86501 14.8934 8.89307 14.7944C8.92113 14.6954 8.92346 14.5908 8.89984 14.4907C8.87622 14.3905 8.82743 14.298 8.7581 14.2219C8.68876 14.1459 8.60116 14.0888 8.5036 14.056L8.31125 14.6295ZM17.0504 4.91842L16.6028 5.32491L16.8206 5.56566L17.1411 5.51727L17.0504 4.91842ZM18.5795 3.7812C18.6412 4.72243 18.5831 5.29345 18.4307 5.72414C18.2831 6.14152 18.0242 6.4851 17.5561 6.93394L18.3932 7.80742C18.9231 7.2993 19.332 6.80086 19.5715 6.12821C19.805 5.46766 19.8534 4.70307 19.7868 3.70136L18.5795 3.7812ZM18.5795 8.20181V7.32108H17.3698V8.20302H18.5795V8.20181ZM10.1234 7.42028V8.58048H11.3332V7.42028H10.1234ZM10.1234 8.58048V9.18538H11.3332V8.58048H10.1234ZM14.3999 3.13638C13.8376 3.1367 13.281 3.24776 12.7617 3.46322C12.2424 3.67867 11.7706 3.99431 11.3733 4.39211C10.9759 4.7899 10.6608 5.26207 10.446 5.78164C10.2311 6.30122 10.1207 6.85803 10.121 7.42028H11.3308C11.3304 7.0168 11.4096 6.61721 11.5638 6.24433C11.7179 5.87146 11.944 5.53261 12.2291 5.24714C12.5142 4.96167 12.8528 4.73517 13.2255 4.58058C13.5981 4.42599 13.9976 4.34634 14.4011 4.34618V3.13638H14.3999ZM17.3686 8.20181C17.3698 13.4233 13.1442 17.654 7.93381 17.654V18.8638C13.8131 18.8638 18.5795 14.0899 18.5795 8.20181H17.3686ZM2.9134 3.953C3.5715 5.70962 6.03936 9.18538 10.7283 9.18538V7.97558C6.71682 7.97558 4.59614 4.99947 4.04571 3.52957L2.9134 3.953ZM2.9388 3.4715C1.67221 6.00723 1.47744 8.46797 2.39805 10.5633C3.31624 12.6527 5.29174 14.2593 8.12011 15.2029L8.5036 14.056C5.89661 13.185 4.24774 11.7671 3.50496 10.0758C2.7646 8.39054 2.87227 6.31331 4.02152 4.01107L2.9388 3.4715ZM7.883 14.2024C7.15474 14.9319 4.96511 16.4442 2.27224 16.4442V17.654C5.37643 17.654 7.8576 15.9409 8.7395 15.0565L7.883 14.2024ZM17.4992 4.51313C17.1081 4.07936 16.6302 3.73265 16.0965 3.49547C15.5627 3.25829 14.9851 3.13595 14.4011 3.13638V4.34618C15.2733 4.34618 16.0584 4.72243 16.6028 5.32491L17.4992 4.51313ZM17.1411 5.51727C18.1047 5.35983 18.9848 4.87537 19.6332 4.14535L18.7331 3.33721C18.2719 3.85832 17.6459 4.20548 16.9597 4.32077L17.1411 5.51727ZM1.93593 17.5523C3.92111 18.8759 6.00186 18.8638 7.93381 18.8638V17.654C5.96194 17.654 4.24653 17.6407 2.60854 16.5458L1.93593 17.5523Z" fill="#294F74"/>
</svg>
